<svg width="35" height="28" viewBox="0 0 35 28" fill="none" xmlns="http://www.w3.org/2000/svg">
<path id="Vector" d="M10.9944 28C24.2025 28 31.4278 17.2249 31.4278 7.89707C31.4278 7.59555 31.4278 7.28972 31.4147 6.9882C32.8214 5.9856 34.0354 4.74434 35 3.32255C33.686 3.89296 32.2935 4.26891 30.8678 4.43818C32.3696 3.55437 33.4944 2.16377 34.0331 0.52485C32.6222 1.34784 31.0778 1.92558 29.4678 2.23276C28.3854 1.09779 26.9531 0.345913 25.3927 0.093581C23.8323 -0.158751 22.231 0.102549 20.8367 0.837005C19.4424 1.57146 18.333 2.73809 17.6804 4.15617C17.0277 5.57425 16.8682 7.16466 17.2266 8.68103C14.3713 8.54007 11.578 7.80978 9.02791 6.53751C6.47778 5.26525 4.22775 3.47943 2.42375 1.29589C1.50793 2.85321 1.22844 4.69534 1.64204 6.44818C2.05563 8.20103 3.13131 9.73319 4.65062 10.7335C3.51212 10.6955 2.39864 10.3945 1.4 9.85481V9.95173C1.40196 11.5831 1.97598 13.1639 3.02504 14.4267C4.07409 15.6895 5.53382 16.557 7.1575 16.8824C6.5412 17.0496 5.90456 17.1329 5.26531 17.1301C4.81465 17.1315 4.36489 17.0904 3.92219 17.0074C4.3811 18.4117 5.27466 19.6396 6.47773 20.519C7.68079 21.3984 9.13311 21.8852 10.6313 21.9114C8.08622 23.8795 4.94244 24.9469 1.70625 24.9417C1.13601 24.9441 0.566176 24.9117 0 24.8448C3.28456 26.9065 7.09909 28.0012 10.9944 28Z" fill="#4F0E0E"/>
</svg>
